<mxfile host="65bd71144e">
    <diagram id="PMfm3p_P58M3X76rkpzQ" name="Page-1">
        <mxGraphModel dx="938" dy="617" grid="0" gridSize="10" guides="1" tooltips="1" connect="1" arrows="1" fold="1" page="1" pageScale="1" pageWidth="4681" pageHeight="3300" math="0" shadow="0">
            <root>
                <mxCell id="0"/>
                <mxCell id="1" parent="0"/>
                <mxCell id="9" style="edgeStyle=none;hachureGap=4;html=1;entryX=0.5;entryY=0;entryDx=0;entryDy=0;fontFamily=Architects Daughter;fontSource=https%3A%2F%2Ffonts.googleapis.com%2Fcss%3Ffamily%3DArchitects%2BDaughter;fontSize=16;exitX=0.5;exitY=1;exitDx=0;exitDy=0;" parent="1" source="2" target="6" edge="1">
                    <mxGeometry relative="1" as="geometry"/>
                </mxCell>
                <mxCell id="10" style="edgeStyle=none;hachureGap=4;html=1;entryX=0.5;entryY=0;entryDx=0;entryDy=0;fontFamily=Architects Daughter;fontSource=https%3A%2F%2Ffonts.googleapis.com%2Fcss%3Ffamily%3DArchitects%2BDaughter;fontSize=16;" parent="1" source="2" target="7" edge="1">
                    <mxGeometry relative="1" as="geometry"/>
                </mxCell>
                <mxCell id="11" style="edgeStyle=none;hachureGap=4;html=1;entryX=0.5;entryY=0;entryDx=0;entryDy=0;fontFamily=Architects Daughter;fontSource=https%3A%2F%2Ffonts.googleapis.com%2Fcss%3Ffamily%3DArchitects%2BDaughter;fontSize=16;exitX=0.5;exitY=1;exitDx=0;exitDy=0;" parent="1" source="2" target="8" edge="1">
                    <mxGeometry relative="1" as="geometry"/>
                </mxCell>
                <mxCell id="2" value="类：人&lt;br&gt;&lt;span style=&quot;white-space: pre;&quot;&gt;&#9;&lt;/span&gt;属性：&lt;br&gt;&lt;span style=&quot;white-space: pre;&quot;&gt;&#9;&lt;/span&gt;&lt;span style=&quot;white-space: pre;&quot;&gt;&#9;&lt;/span&gt;姓名&lt;br&gt;&lt;span style=&quot;white-space: pre;&quot;&gt;&#9;&lt;/span&gt;&lt;span style=&quot;white-space: pre;&quot;&gt;&#9;&lt;/span&gt;身高&lt;br&gt;&lt;span style=&quot;white-space: pre;&quot;&gt;&#9;&lt;/span&gt;&lt;span style=&quot;white-space: pre;&quot;&gt;&#9;&lt;/span&gt;体重&lt;br&gt;&lt;span style=&quot;white-space: pre;&quot;&gt;&#9;&lt;/span&gt;&lt;span style=&quot;white-space: pre;&quot;&gt;&#9;&lt;/span&gt;年龄&lt;br&gt;&lt;span style=&quot;white-space: pre;&quot;&gt;&#9;&lt;/span&gt;&lt;span style=&quot;white-space: pre;&quot;&gt;&#9;&lt;/span&gt;肤色&lt;br&gt;&lt;span style=&quot;white-space: pre;&quot;&gt;&#9;&lt;/span&gt;方法：&lt;br&gt;&lt;span style=&quot;white-space: pre;&quot;&gt;&#9;&lt;/span&gt;&lt;span style=&quot;white-space: pre;&quot;&gt;&#9;&lt;/span&gt;吃&lt;br&gt;&lt;span style=&quot;white-space: pre;&quot;&gt;&#9;&lt;/span&gt;&lt;span style=&quot;white-space: pre;&quot;&gt;&#9;&lt;/span&gt;喝&lt;br&gt;&lt;span style=&quot;white-space: pre;&quot;&gt;&#9;&lt;/span&gt;&lt;span style=&quot;white-space: pre;&quot;&gt;&#9;&lt;/span&gt;拉&lt;br&gt;&lt;span style=&quot;white-space: pre;&quot;&gt;&#9;&lt;/span&gt;&lt;span style=&quot;white-space: pre;&quot;&gt;&#9;&lt;/span&gt;撒&lt;br&gt;&lt;span style=&quot;white-space: pre;&quot;&gt;&#9;&lt;/span&gt;&lt;span style=&quot;white-space: pre;&quot;&gt;&#9;&lt;/span&gt;" style="rounded=0;whiteSpace=wrap;html=1;hachureGap=4;fontFamily=Helvetica;fontSize=20;align=left;dashed=1;" parent="1" vertex="1">
                    <mxGeometry x="420" y="130" width="310" height="320" as="geometry"/>
                </mxCell>
                <mxCell id="6" value="对象：人&lt;br&gt;&lt;span style=&quot;white-space: pre;&quot;&gt;&#9;&lt;/span&gt;属性：&lt;br&gt;&lt;span style=&quot;white-space: pre;&quot;&gt;&#9;&lt;/span&gt;&lt;span style=&quot;white-space: pre;&quot;&gt;&#9;&lt;/span&gt;姓名：张三&lt;br&gt;&lt;span style=&quot;white-space: pre;&quot;&gt;&#9;&lt;/span&gt;&lt;span style=&quot;white-space: pre;&quot;&gt;&#9;&lt;/span&gt;身高：100&lt;br&gt;&lt;span style=&quot;white-space: pre;&quot;&gt;&#9;&lt;/span&gt;&lt;span style=&quot;white-space: pre;&quot;&gt;&#9;&lt;/span&gt;体重：100&lt;br&gt;&lt;span style=&quot;white-space: pre;&quot;&gt;&#9;&lt;/span&gt;&lt;span style=&quot;white-space: pre;&quot;&gt;&#9;&lt;/span&gt;年龄：100&lt;br&gt;&lt;span style=&quot;white-space: pre;&quot;&gt;&#9;&lt;/span&gt;&lt;span style=&quot;white-space: pre;&quot;&gt;&#9;&lt;/span&gt;肤色：黄&lt;br&gt;&lt;span style=&quot;white-space: pre;&quot;&gt;&#9;&lt;/span&gt;方法：&lt;br&gt;&lt;span style=&quot;white-space: pre;&quot;&gt;&#9;&lt;/span&gt;&lt;span style=&quot;white-space: pre;&quot;&gt;&#9;&lt;/span&gt;吃&lt;br&gt;&lt;span style=&quot;white-space: pre;&quot;&gt;&#9;&lt;/span&gt;&lt;span style=&quot;white-space: pre;&quot;&gt;&#9;&lt;/span&gt;喝&lt;br&gt;&lt;span style=&quot;white-space: pre;&quot;&gt;&#9;&lt;/span&gt;&lt;span style=&quot;white-space: pre;&quot;&gt;&#9;&lt;/span&gt;拉&lt;br&gt;&lt;span style=&quot;white-space: pre;&quot;&gt;&#9;&lt;/span&gt;&lt;span style=&quot;white-space: pre;&quot;&gt;&#9;&lt;/span&gt;撒&lt;br&gt;&lt;span style=&quot;white-space: pre;&quot;&gt;&#9;&lt;/span&gt;&lt;span style=&quot;white-space: pre;&quot;&gt;&#9;&lt;/span&gt;" style="rounded=0;whiteSpace=wrap;html=1;hachureGap=4;fontFamily=Helvetica;fontSize=20;align=left;" parent="1" vertex="1">
                    <mxGeometry x="50" y="540" width="310" height="320" as="geometry"/>
                </mxCell>
                <mxCell id="7" value="对象：人&lt;br&gt;&lt;span style=&quot;white-space: pre;&quot;&gt;&#9;&lt;/span&gt;属性：&lt;br&gt;&lt;span style=&quot;white-space: pre;&quot;&gt;&#9;&lt;/span&gt;&lt;span style=&quot;white-space: pre;&quot;&gt;&#9;&lt;/span&gt;姓名：李四&lt;br&gt;&lt;span style=&quot;white-space: pre;&quot;&gt;&#9;&lt;/span&gt;&lt;span style=&quot;white-space: pre;&quot;&gt;&#9;&lt;/span&gt;身高：90&lt;br&gt;&lt;span style=&quot;white-space: pre;&quot;&gt;&#9;&lt;/span&gt;&lt;span style=&quot;white-space: pre;&quot;&gt;&#9;&lt;/span&gt;体重：90&lt;br&gt;&lt;span style=&quot;white-space: pre;&quot;&gt;&#9;&lt;/span&gt;&lt;span style=&quot;white-space: pre;&quot;&gt;&#9;&lt;/span&gt;年龄：90&lt;br&gt;&lt;span style=&quot;white-space: pre;&quot;&gt;&#9;&lt;/span&gt;&lt;span style=&quot;white-space: pre;&quot;&gt;&#9;&lt;/span&gt;肤色：白&lt;br&gt;&lt;span style=&quot;white-space: pre;&quot;&gt;&#9;&lt;/span&gt;方法：&lt;br&gt;&lt;span style=&quot;white-space: pre;&quot;&gt;&#9;&lt;/span&gt;&lt;span style=&quot;white-space: pre;&quot;&gt;&#9;&lt;/span&gt;吃&lt;br&gt;&lt;span style=&quot;white-space: pre;&quot;&gt;&#9;&lt;/span&gt;&lt;span style=&quot;white-space: pre;&quot;&gt;&#9;&lt;/span&gt;喝&lt;br&gt;&lt;span style=&quot;white-space: pre;&quot;&gt;&#9;&lt;/span&gt;&lt;span style=&quot;white-space: pre;&quot;&gt;&#9;&lt;/span&gt;拉&lt;br&gt;&lt;span style=&quot;white-space: pre;&quot;&gt;&#9;&lt;/span&gt;&lt;span style=&quot;white-space: pre;&quot;&gt;&#9;&lt;/span&gt;撒&lt;br&gt;&lt;span style=&quot;white-space: pre;&quot;&gt;&#9;&lt;/span&gt;&lt;span style=&quot;white-space: pre;&quot;&gt;&#9;&lt;/span&gt;" style="rounded=0;whiteSpace=wrap;html=1;hachureGap=4;fontFamily=Helvetica;fontSize=20;align=left;" parent="1" vertex="1">
                    <mxGeometry x="420" y="540" width="310" height="320" as="geometry"/>
                </mxCell>
                <mxCell id="8" value="对象：人&lt;br&gt;&lt;span style=&quot;white-space: pre;&quot;&gt;&#9;&lt;/span&gt;属性：&lt;br&gt;&lt;span style=&quot;white-space: pre;&quot;&gt;&#9;&lt;/span&gt;&lt;span style=&quot;white-space: pre;&quot;&gt;&#9;&lt;/span&gt;姓名：王五&lt;br&gt;&lt;span style=&quot;white-space: pre;&quot;&gt;&#9;&lt;/span&gt;&lt;span style=&quot;white-space: pre;&quot;&gt;&#9;&lt;/span&gt;身高：80&lt;br&gt;&lt;span style=&quot;white-space: pre;&quot;&gt;&#9;&lt;/span&gt;&lt;span style=&quot;white-space: pre;&quot;&gt;&#9;&lt;/span&gt;体重：80&lt;br&gt;&lt;span style=&quot;white-space: pre;&quot;&gt;&#9;&lt;/span&gt;&lt;span style=&quot;white-space: pre;&quot;&gt;&#9;&lt;/span&gt;年龄：80&lt;br&gt;&lt;span style=&quot;white-space: pre;&quot;&gt;&#9;&lt;/span&gt;&lt;span style=&quot;white-space: pre;&quot;&gt;&#9;&lt;/span&gt;肤色：黑&lt;br&gt;&lt;span style=&quot;white-space: pre;&quot;&gt;&#9;&lt;/span&gt;方法：&lt;br&gt;&lt;span style=&quot;white-space: pre;&quot;&gt;&#9;&lt;/span&gt;&lt;span style=&quot;white-space: pre;&quot;&gt;&#9;&lt;/span&gt;吃&lt;br&gt;&lt;span style=&quot;white-space: pre;&quot;&gt;&#9;&lt;/span&gt;&lt;span style=&quot;white-space: pre;&quot;&gt;&#9;&lt;/span&gt;喝&lt;br&gt;&lt;span style=&quot;white-space: pre;&quot;&gt;&#9;&lt;/span&gt;&lt;span style=&quot;white-space: pre;&quot;&gt;&#9;&lt;/span&gt;拉&lt;br&gt;&lt;span style=&quot;white-space: pre;&quot;&gt;&#9;&lt;/span&gt;&lt;span style=&quot;white-space: pre;&quot;&gt;&#9;&lt;/span&gt;撒&lt;br&gt;&lt;span style=&quot;white-space: pre;&quot;&gt;&#9;&lt;/span&gt;&lt;span style=&quot;white-space: pre;&quot;&gt;&#9;&lt;/span&gt;" style="rounded=0;whiteSpace=wrap;html=1;hachureGap=4;fontFamily=Helvetica;fontSize=20;align=left;" parent="1" vertex="1">
                    <mxGeometry x="790" y="540" width="310" height="320" as="geometry"/>
                </mxCell>
                <mxCell id="12" value="" style="shape=image;verticalLabelPosition=bottom;labelBackgroundColor=default;verticalAlign=top;aspect=fixed;imageAspect=0;image=data:image/png,iVBORw0KGgoAAAANSUhEUgAAAc8AAAGmCAIAAACV4ZjuAAAgAElEQVR4Ae2dT08cSZ/n62A1vILu12H5lJI5c3zm4D5w7D6UxYkLl6dlPH3HXQaBe3xaG61kWZa92qdBWdawa4S0sjWYVkuracMmJTNaYSS64VGbHa0fzew4VvE3IyIj/xSVlZWR+bWQycyKjIz4RPHhV7+MSDoE/0AABEAABMZPoDP+S+AKIAACIAACBLbFmwAEQAAEqiAwrG1Pu9d/6tzY5F/Bo8sq2ohrgAAIgID/BIa17WW0e9hb2g+Yc320bdjtuP4FQTeM/B9O9AAEQKC2BIa1rehI9Ginc2PTZ9sG2j+p36AH4db2nYqGgYDvBFpq225oDlwUdgPqXPjW5II9EACB0ghYtr0Ml3Z4loCGrnP74bH7Svmx7fFl+Gg/mKMhsEjyzu33dp15XvuioxVzN1gd5ZkE27aEEP6Cpdso7HENs/DXkW6IeszS7GVaqdQ2NXc3ESrTV1X5IOj2nNkL66LJUvyi7HJ6jY4Lym7352emp6dn5vvyAL6DAAhUTUC3rXYHbE469/pOd9fRpnzb7u4Lz87t6M61azs+VHLvqIve2AyWTo0P9QWLOVpqH0q1rdCt5mER77KYV5Ok5dAoCsMeSwYHohDNUTD9GqGy7mVVgDrZNK5WTC9lXFSUkVfpdOItrflaz/vzU1PT09NTU9CtRgWbIFAtAWXby94cm2wwd6g0F+0yFWpHVNvybUtIdKxHspfhEqt/6VRVQgNKeVBdlByfdud2emZMXbCYXnPadqpthcKUrnhBU5jO+JcQohSpuTPsGYYU1eluZXGpUUhWFMRBbxTy6FkPutXldFerC7h6jtjWRQXHQKBSAtK2PHi8vm/nMw1jxi0rYtu4NN/i0a5hW6F4O+C1zyxYzD7Nuc+lpJwalzFNartXluPH7dP50cA+LE+KfZxRghY22yBPT7TFfTn3ybISfAcBEJgwAWHbYe1ZrDxN3XZZJiFQWQLDtoTX07m+Q1MHZjyrgylYTD8lbdtpWxlAxpEsK6bHk7I+5wtCf2acKs/g34UyOyz3G0fyRqG0auzj9j6vBLY1YGIHBOpGQNiWf1TPizHjxufaNtoVc3LVXTKxYdqWRn27+wFPYtzY7KTeSStaLG5iyhZ3Ek+r2v/Hdo3dqE0UY5vsnLggv4pbf3YL9Dta9B6ambBVoa0j/uWNVi+4Lwfb2sCxDwK1IjAe24q8xE539zIO4xyZhBhFdHzaW5ITGDLmQhQrFteb2JK2tSxquU/a1vax2FfeE9W79Ze4NjsQ6VMOtDwvbOvmhaMg0BQCY8kkuCPfTNtKnnQ2GI2CExlkWYB/L1jMPIntWWGio8QwxcTpw9hWXpFGukzesbrTqrGP2/u8SsS2Ei2+g0AtCQjbEq7CHMfFPXD7VL7OX7XyEvxgJ5FJkCep7+ye2HV7WoJ6WW4ULCaLy+8FbZucDyYrcH13689V0jiWOM0tTF6sk2dl98nGBbEDAiAwOQLStkTc9+/MHWorGvgKhXhOmGqnUKdrchgtw92tvRqncU3b0nqsXK3MQuiTwAoWU83L2ChqW6FbfY4VqzUKw0S+VUzcsrO5RiuoMq1crbCofpo6pK4hb+AlS+lH6KWybIsZYMZgYAcEJkFA2ZYQoq1uuL4T37lyhpn6cgO+WszQqHQ3vfEls7FyUVlHWfj4VEzy5S+peQs3No0QuGCxYvgK21abRUs/8LuXGtC1YfSfyOdqyWBzIZl0ZlxObHW0kJV1QPg2/ZJqOtkQtsXqhmJvDpQCgXES0G1LCOHBrHym4vWd7iNzTZfWlOiROevAsC2rSl8EvERDZhHhKtuy2vj9MX1FWde1wLdgMa2B7s0hbEsrMOYRUOfS22nxnT9emzKntmG7kNbF7o9JM7PKVAirN1a/jcYWANuluJHtKyC21SFiGwRqR8Cybe3ahwaBAAiAQDMIwLbNGEf0AgRAoO4EYNu6jxDaBwIg0AwCsG0zxhG9AAEQqDsB2LbuI4T2gQAINIMAbNuMcUQvQAAE6k4Atq37CKF9IAACzSAA2zZjHNELEACBuhOAbes+QmgfCIBAMwjAts0YR/QCBECg7gRg27qPENoHAiDQDAKwbTPGEb0AARCoOwHYtu4jhPaBAAg0gwBs24xxRC9AAATqTgC2rfsIoX0gAALNIADbXmUcz8+jKIrOC55KS58nC7uPZtbJruuoKvMkvAgCIFALArDtFYbh/PXj5eXlrfih4pl1sNKPX9u6jbaWl5NH9ZrOo9dbj40iiXOircfLj7cKe1+vHdsgAALVEoBtr8CbSi/HlHGtrHDCzEzBiaPxWXzLupB1kpS+7XG7FuyDAAjUgYBPtn3/cvXevXvLay+P/4OQ//3f1paXl5fvb0X/bnEst5hVOd1NCVYdJemfx3GGsG4FJ2s4f/343r17Mr416rJMrJ9bLoGCtekNwDYIgECSgE+2HYT37927d/+nw38jhPzLP64uLy//8PyfP9mdKreYXTuTrWbA5Ov8CJXhPfOfioe5Q80X6Z4rORG93pJJXyO0pWmGRHZCNKZcAgVrSwOB4yAAApyAT7aNtn5YXr73/H/+X9r09y/vLy8vP9n/P4mRLLdYonoarebblprx8dZrejNN/Nt6LGzLQ+MteZx/f61epqFzUsS5R3RTl0ugYG1JUDgCAiCgE/DJtoc/LS8v/+e3H1n7B+EP1F6/653h2+UWS9Qvglb56T7xOj9ASxlpWRmYctcmolJaXlTJJzwYMmYuVsI1LS4LatnbcgkUrC0FBA6DAAgIAh7Z9v+9+6/Ly//pfwi/Rlv3lv9h9zQ5kOUWS9QfbXHrZdtWujU+nes0YnGroWFWJFk+PvOcx71bW+ze3OPHNLLOnIhQLoGCtcXtxRYIgICTgEe2/bd//i/L//DfT3g3Pv+vreW1l//yH8lOlVvMqp9akdvWjFytYsl7Y1ynr18/Nqd0yfO00FYeot/Poy12l4xmaFkNzPH0KEsKp8z9KpdAwdr0ZmMbBEDAQcAj2zpaX/UhYbyIzrfNCm65W/X5uIZOz6Mtc45sojybaktj2DiIpTVoihci1gpUDQPXAwEQGIoAbDsELiY8alnLfIkqmFuNe2TUzyqBkDidlWe5XBW3Uo2+1pYt0HxCIpZlSYb8W3aJ9uEACIBA9QRg28LMWQDKlcmnDSh72lWwkuqmlsg86MGwVhU9N5Yt2zE1KyqPaBLCdcXzaOu1HkXbjcE+CIBAPQjAtgXHwRSkuWdXYdiTvUiPGKqkB6R/WWXGq3aFXMhmDckyOAICIFBnArBtodFJBLNZuk3akx6x8rxaBbqc2eNu5KSu+PtrJmcjNxG/6HzmTaFuoRAIgEB1BGDbAqzZrC8rsuT+tRTK69LtGR9JBK/0GWD0Zb043bZSELm7KkYu0BMUAQEQmBgB2DYPPZtuZUem9CRqRpfpCoW28VWTxePX2JaIgvl028SyCKswdkEABOpKALbNGhk+Q4DOwnKW4jGvHd/qsSo/jR5JqYJPo017kZyzyWbC9TLE1laNOZuFgyAAAnUkANumjYqc0JqmWnYef2aCEfmyUNT6+O8Kgfl10yNbNeVWszlf7MDm4EK5aQOH4yBQUwKwrWNgmOjYo2fMRQiOoiw2NZYhsNA2eT8rtuP569fyaTXsqeSaTc/pMxJeb4mlYs6VC3wdr7ji69fROf6Ug2tYcAwE6kcAtk2OCYs3nZNek2XZETljgRpVrEJIKUkPa8Gv6VPqaR4UP86++jmNu/niXSxtyCCNl0CgVgRgW+dwTCZgPD+Xj7J1Nip5kMbCcdCcfB1HQAAE6kMAtq3PWKAlIAACTSYA2zZ5dNE3EACB+hCAbeszFmgJCIBAkwnAtk0eXfQNBECgPgRg2/qMBVoCAiDQZAKwbZNHF30DARCoDwHYtj5jgZaAAAg0mQBs2+TRRd9AAATqQwC2rc9YoCUgAAJNJgDbNnl00TcQAIH6EIBt6zMWaAkIgECTCcC2TR5d9A0EQKA+BGDb+owFWgICINBkArBtk0cXfQMBEKgPAdi2PmOBloAACDSZAGzb5NFF30AABOpDALatz1igJSAAAk0mANs2eXTRNxAAgfoQgG3rMxZoCQiAQJMJwLZNHl30DQRAoD4EYNv6jAVaAgIg0GQCsG2TRxd9AwEQqA8B2LY+Y4GWgAAINJkAbNvk0UXfQAAE6kMAtq3PWKAlIAACTSYA2zZ5dNE3EACB+hCAbeszFmgJCIBAkwnAtk0eXfQNBECgPgRg2/qMBVoCAiDQZAKwbZNHF30DARCoDwHYtj5jgZaAAAg0mQBs2+TRRd9AAATqQwC2rc9YoCUgAAJNJgDbNnl00TcQAIH6EIBt6zMWaAkIgECTCcC2TR5d9A0EQKA+BGDb+owFWgICINBkArBtk0cXfQMBEKgPAdi2PmOBloAACDSZAGzb5NFF30AABOpDALatz1igJSAAAk0mANs2eXTRNxAAgfoQgG3rMxZoCQiAQJMJwLZNHl30DQRAoD4EYNv6jAVaAgIg0GQCsG2TRxd9AwEQqA8B2LY+Y4GWgAAINJlA3W0b9YKO/NcNmzwS7elbtDP7xdJX/Ov2u/b0Gz1tO4G625aQKApDrlzYVnu3bt++8+UXS19de7ZNCOH+unZnoa+VmPDm2YPbzxZu72xHjnYMonfb99dp+wvYtvY9dXQQh0DAQaD+tqWNDrs0voVttQEccFvd3BnEtl1/4FKbdlKVm+8W6C+D9Cb1nxW0be17WiVVXMtnArCtr6Nn2IqrjcW5delPabYlde9pXYijHXUn4JltoyjsBjKTG3R7yVguCntdWaDTCbq90CjDouSgx+qh8TKrg1bKksOBXaFVW9A1a5vk6EY7s9fuzN4/Y204e3Dzzpc8zrXbdLZ9/1mcJ725vtDnp+jlzgb9nYWb60ax++9o1Bz/Y5fgyVaWvhj0ZbXX1hdEM2ROQ6Vl9Y24taxS5dDobPu2vLRelbp00Z6qE7ABArUk4JNtO7FnlU/N7IJ2Ty1QhTu6Q3lOQt53S343y6rLpNQ20SF9t6Alamly02Hbdws3WXr3i6WvlEwt69E+sDiUffCfVcWSSdXobLu/w/MDs7zam+tiQ2UM9Dtgumpp5ep3A8PGbXst9qxwvdYpibdIT2VZfAeB2hLwyrY0FFXBpfCmplvh2iAOZyNxfy12qDiLH5An8Dr4S6o+oyQfv4gfi2ub6LAmHJS44yTuL+kWjlI+4EdneiQ7ECpMpiZkhHtNi5H7O658ccqFFDJ+Cfpr4Jm6kyYabHckv6eqVmyAQH0J+GRbK3Fg2VHcSrNVKIwqJWqexPbkGcZL1mlqAPlxWZs6nLNxtDIznf5vZuUo5/wrvSwmKiSMyY/bRrMuwV2ZOJcw21LVWuWTu8Vse5vd5VNnq/SCOoINEGgMAa9sa8635XaUriTcg2pXjZB53PArF7RUpyFSs5yqTEyPSF5FK+HYPFqZn0n/Nz8e2/affWl9eBctYx7UA152nKZub6/TTEKcH0i1rSuYtfpd0LbmfFtu20TbrKqxCwJeEmiObY3QVB8L4wXTomzPZVtu3k4nSPxz303Tr1eTbTFx6poSqNpgmVzdaJGW3tWTrXwyr9EfEdvCtgYV7IBAEQKwrZrGq8e20rbJ22jsiBR0EcKTKiNsq9tT344zCVygd2ZvvxvE0zdyMgmw7aSGFdf1mEBzbMsFmfyMbx43At28TIIS8agDPKlMQnJeQbInPI2rh7q0DGybJIUjIDAagebY9sp3yWSg6hBxWbqdyF2yVGOa7xjnTbO0O2zyLhliWxMi9kCgAIEG2VbcJ+sUmAFmCNbYif3K5avPOWM4ozBUk9AK8J1oETkDLJ5ixZpztt3XVy4kbmepNO5IeVuRoHAtpmCtcE4/wF2yib5hcPHxEmiSbYn0Lc2tpqxHMANY+sSbMBLZSvMl+vQB7fljafWNd3RGrp0pj6drr92ZvckeBJN4fEGc4VVrDVSGVy1b6D/j0xXoww34Wgkxe0FbSGY2V7g+rsp8aA5sa+LCXvMJNMu2VJHZK3fNLK4xvgnb0lf1lcLM4XQpcHwzyaigpjt0ia1aUUad++xB31jLQAgxyrAChEe4mm2FZ5U9+YZ7khlHobmerSUzZunCtjV9v6BZYyPgh23H1n1UDAIgAAIVEYBtKwKNy4AACLScAGzb8jcAug8CIFARAdi2ItC4DAiAQMsJwLYtfwOg+yAAAhURgG0rAo3LgAAItJwAbNvyNwC6DwIgUBEB2LYi0LgMCIBAywnAti1/A6D7IAACFRGAbSsCjcuAAAi0nABs2/I3ALoPAiBQEQHYtiLQuAwIgEDLCcC2LX8DoPsgAAIVEYBtKwKNy4AACLScAGzb8jcAug8CIFARAdi2ItC4DAiAQMsJwLYtfwOg+yAAAhURgG0rAo3LgAAItJwAbNvyNwC6DwIgUBEB2LYi0LgMCIBAywnAti1/A6D7IAACFRGAbSsCjcuAAAi0nABs2/I3ALoPAiBQEQHYtiLQuAwIgEDLCcC2LX8DoPsgAAIVEYBtKwKNy4AACLScAGzb8jcAug8CIFARAdi2ItC4DAiAQMsJwLYtfwOg+yAAAhURgG0rAo3LgAAItJwAbNvyNwC6DwIgUBEB2LYi0LgMCIBAywnAti1/A6D7IAACFRGAbSsCjcuAAAi0nABs2/I3ALoPAiBQEQHYtiLQuAwIgEDLCcC2LX8DoPsgAAIVEYBtKwKNy4AACLScAGzb8jcAug8CIFARAdi2ItC4DAiAQMsJwLYtfwOg+yAAAhURgG0rAo3LgAAItJwAbNvyNwC6DwIgUBEB2LYi0LgMCIBAywnAti1/A6D7IAACFRGAbSsCjcuAAAi0nABs2/I3ALoPAiBQEQHYtiLQuAwIgEDLCcC2LX8DoPsgAAIVEYBtKwKNy4AACLScgLe23d3v3NgMHl2OOH7Ro/3g+k+dG5v0a26n++g0GrHGkk7/0H31U+enV93DUXvI2lNubSV10azmqD8/M983j5W9F728dW/96x/415MX50Xqv3ix9USetba48fJFdGGcxpp9ZBzCDgg4CbTattGjHeHZ6zvBnHDu6AZ3gh7uYHT4qvOXnzo//aXz6nB0/ResLTp82337tvehFL8P1d+jlZlp9m9mZazeOr/Ye7O3KuxZxLYXLza4mtdubTxZFKbWT6yq5UPhROGaEmi1bcMlalhdr9FuTWLby1Kj0WK1hW+p34Nyouni7/dYWPP9sbpWNYk7VJemesnaGKxSw+olL/as2PaoX9GvCqtp2PWPQOtte32nd+zfsI2lxROxbX+eR7VVmZaSG8q2a7c29k5yeB/JXow5Ns9pBl6uOQF/bHt82p2TH/zn9sNHKXnb49Pekix2YzOY2w/TZUpjWx9tyzIDf+l+IOTyMnz7KqA5hysneS97NEHs/Conj5H1E9Cfn5qanp7Ok9T5YHVDJU+fLG7t7blSrifR3qr44E8D0sWtQYolS7ctIYRH6FNTWann/jxNmIw9O50FHK9NkoAntj0+jO9l8Tta7H89CUAp7sa3vAKlZtOn4dJOMCe+1M0xdaS7O8nBYNf+8DZ49Up9UaUm/nHbdl7x3C71rBQuU7BePr+2CdpWGCrbtSdvlGfXFjXnrpqf6Pfie1lPFuNkqzMszbYtNfui+BJJW7n7ZHHj5Z6OV98+WpmhvznSfSt+tWQbWa8R2w0j4IVtT7ts2kAQTxi4TKZcCVHF4ts8EZu60JmLbzXxE4VnNXHzI7WwLbs/xoPNhD3Z20+76/U2lJ3leYDOW1PPH97m1qbe0VVnEoR9sqJBQnjmdE1360n0ctH6dC8mG5gJ1q31r39YW3xjTiGgvc2zbTxvQU1gUBvptiWE5RMyZIrYVr3X2rnhg225MZdOjRFKzAATEwysYoTw406N1jqTEKcLjH7THf5S4BBr6mf/jNpU9RXblsaCUxluYu0632MzAbIcJ+25tmrP3uBWTZ6bbVvFgzDXF8nbylPo74+pqexYXZbF9/YR8MC2PBq1dZmwbao6EyXVKKeeokpMcCPDj8K21uQBGsb6ZFseCeapiZuRTsBajS5S8rCD1XtuJ+7R8FYPePl4js22IpmQHa1P8D2FS0+WQGNse9njE2ZlTlalYnnC187wMuqwrfHmqzi2LWZb+sF/b0vNdV1z3CIT8S/N6lpfbFUCbGuMMnYmR6Bxtk2kYjMSsrCt8carq215Iy+0KQdrxnwDYVuVWrU2KswkILY13lDYsQh4YFueeLWD00R+gKrzxqadcLC6a+7CtgaPim1bKG9rNJDt0Nlg9PbXra2BfJHfSUtaVb5ufx9bJgF5Wxs19nUCHtiWMLHq8wpoBxK2FcUSd8n03lrbsK0BpGLbkkJzEowWih0azBqJWpafTd4lc51Lj43LtnlzEtLag+MtIeCDbYnKyR7GSxW4gg23yhlgS+bq2+PTcFdOkzJHFbY1ePCbb523H+x7+0apEneKzLe9eLFh52rZDFzDtkTOANMnihFCTqKBax2EuPPmmhxm9S71/ptVju6KNELGbT/MAHNga9MhL2xL6Fxa+dQYe6rs9f1QDZi+CEJ70IwdF8vytbNtdKgtbZArxMRKh7fxnOGCcxIK1iZpEGJMzmXPxLEmmcVFS9oS4W2qoU4iPgOMp2L11Q12JKsvgtCeIOOcb0u0wqLmxOwx3sHiti2wlkx0Nm/SW0loUU39CPhiW0LIZag9HTGY2+/tHlIF67alfC/pajH1EMXrO8HSYXjsSWzLNJq/iLawbdViM6vO7IliqvBf7LUSY3j/sk/f2Yt3+f0xfUXZS1fESoixwJdNGnszOHGt8aXJhHjtGc0Cj2Zb9ZyE7LlfiG3H8AbyqUqPbFs+1tFj2w9dbZWtWm6rNuS624LFyu9heTUW7ELBYnq7eFTIHyBQzTPA9KtnbxeIbelzeSt5XGR2S/GqBwTabFuW5zWfojDsiH3ois/7Kh7UN9S624LFhr16leULdqFgMavl1FiFHk9jnTfuXZoONhPE9hVlAmGmymeY2Y3AvicEWmdb+sca2AoIkf/VHqHgyZA1tJnUuCtj/tsNhdDRJANbJSGTxY4nLWgV9VdgWg0HNjMItNC28fMYvXzcYsZg4qUyCPAZC0K1BR5uW8Y1UUcrCLTOtq0YVXQSBECgfgRg2/qNCVoEAiDQRAKwbRNHFX0CARCoHwHYtn5jghaBAAg0kQBs28RRRZ9AAATqR6COtv39/I/fz/+oHyu0CARAAASuTgC2vTo7nAkCIAACxQnAtsVZoSQIgAAIXJ0AbHt1djgTBEAABIoTgG2Ls0JJEAABELg6Adj26uxwJgiAAAgUJwDbFmeFkiAAAiBwdQKw7dXZ4UwQAAEQKE4Ati3OqoKS4u9r8QdQPXnh/rsDVjv0P0Owtrjx8kV0YZXALgiAQA0IwLY1GIS4CecXe2/2VsUfcSliW/V4QPqHYRbvDaXp+LKt2jr528LCX7/6u9/51+zCx+2TVvUfnZ0YAdh2YugzLjzUn+Be//oH3csXe9XGtmG30+l0gl5Vf6g3A1uBl07+dfZPv0nPCud++ae/LvxTgXNRBARGIwDbjsZvPGcPZdvsP+UyngbGtUa9gNq2G//h4/i12m39+4MFqtrZ5/+umjZ4Tp375Z8+bqtD2ACB8RCAbUvhavy11yeLW3vOPwp7Eu2tbvAP+zQgXdwapHyGrdq2URT2ukHAvEnd2QmCbi90RatR2I2LBUG3yyLbhGxZfawmUZuzslLQD1HJP32kYl3410F8jvDvV3/3O8LbmAq2xkMAth2Z68kb/Y9vq+0nq+Yn+r34T2o/WRTOTQtLs207WN3gfzgrrof9HS1+8OXe8D3i2QBmWd25dsCqilEdxy7tWioNu+pFrbbJ5xp4GGsFtjSN0GMW7v1teHA4AwSGIADbDgHLWXSwSu9NreluPYleLm7sGXGrmGxgJli36ImLjj8ymGdbcTdMhcn6xlVsS0gU6ZFsJLxq6FYc06wpsghmZJssRkR12plOkuM+uN2jaQQthv3bwp9++7L3N+KIecfdFtTfRgKw7Yijfr7HZgJkO47bc21VNxq9Lj+ePDfbtnqLB6s5f4JbLzzENnemblt+xDJmImubOCCuyY/r9RVpDP/74dMp/2ZWjopUIsvQpMGXf/rrA/lbcLv3m0jXsltnZoZBnoTvIFAeAdh2VJbCpLc2aOpA/iRblaY6cY+Gt3rAy0+chG1pqpXmbvk/nifQ7Zj0LyEkIVdWylIy61PqCxYqY/doZX4m/d/8KLZl8azIKsC2BnXsjIsAbFsC2Yu9LTXXdc1xi0zEv2tadlUkXm/RnMDEbUtvfak0rL6h25Zw3XaC+PZZMuEg7NuR0o6/s2pdGi6Bf7Eq9NiWbavbZbBtMYIoNSIB2HZEgPHpF9qUgzVjvoGwrZ5d1bcnnEkQhgy6oZa7zYpkdR9bU22lba0ictewd0yuoi2Vtx08/6ueUkDetqIBaP1lYNvS3wJ0Nhi9/XVrS8004nfSklZNu3aVmQQuSDvqdNk2CntiKoIIWbu9OM4VXXGdl9bL/OOlZhKInJNAFzjQm2PqH79Lph9RL2EDBMojANuWxzKuiQazxuwulp9N3iWLzzC3qretFXWKGFU/KqysHzIbzfdK1W2pd8kIj2GTaxlUzOvqD46BQGkEYNtRUV682LBztWwGrmFbImeA6RPFCCEn0cC1DkLceXNNDrOam3r/zSgX9VhiNui61tdyP2rBbZzGNdTKy8mkgPgeBDQDoV9MFLMPR2FoltPPqWpbrGWY1cLYAQ9ssZasqjFo83Vg29FG/yTiM8B4HpbeB2M3vvgMXKNqfRGE9gQZ53xbohUWNSdmj/HKC9k2zqZqTo0bF7+sL1qQOtUELZecqXtfSr2GlrX66DIIdQPOefG4GZVs4TkJlWDGRZwEYFsnluEO8vtjsTyZr6UAACAASURBVGcXN166IlZCjAW+9Kldq28GJ+7HKurPUXS4WzawkG1JZmxLqzIX5LJVuyLCzVNkysoFo0K5EtiIgWUPKv+OZ4BVjhwX5ARgW7/fCcVsW0ofozBxT4zWK/K5WghcytVQCQg0jgBs6/WQ0nSwmSAeV3dEOrbb06aJKdf68gywccFBvSBQhABsW4RSvcrQJANbKCGTxY4nLYyhxXY6VuVjO4GRth3DpVElCDSBAGzr3yjyGQtCtbesx9+MtTviNpm6OZb+ZMaxNgOVg4CXBGBbL4cNjQYBEPCOAGzr3ZChwSAAAl4SgG29HDY0GgRAwDsCsK13Q4YGgwAIeEkAtvVy2NBoEAAB7wjU0bbeQUSDQQAEQCCXAGybiwgFQAAEQKAEArBtCRBRBQiAAAjkEoBtcxGhAAiAAAiUQAC2LQEiqgABEACBXAKwbS4iFAABEACBEgjAtiVARBUgAAIgkEsAts1FhAIgAAIgUAIB2LYEiKgCBEAABHIJwLa5iFAABEAABEogANuWABFVgAAIgEAuAdg2FxEKgAAIgEAJBGDbEiCiChAAARDIJQDb5iJCARAAARAogQBsWwJEVAECIAACuQRg21xEKAACIAACJRCAbUuAiCpAAARAIJcAbJuLCAVAAARAoAQCsG0JEFEFCIAACOQSgG1zEaEACIAACJRAALYtASKqAAEQAIFcArBtLiIUAAEQAIESCMC2JUBEFSAAAiCQSwC2zUWEAiAAAiBQAgHYtgSIqAIEQAAEcgnAtrmIUAAEQAAESiAA25YAEVWAAAiAQC4B2DYXEQqAAAiAQAkEYNsSIKIKEAABEMglANvmIkIBEAABECiBAGxbAkRUAQIgAAK5BGDbXEQoAAIgAAIlEIBtS4CIKkAABEAglwBsm4sIBUAABECgBAKwbQkQUQUIgAAI5BKAbXMRoQAIgAAIlEAAti0BIqoAARAAgVwCsG0uIhQAARAAgRIIwLYlQEQVIAACIJBLALbNRYQCIAACIFACAdi2BIioAgRAAARyCXhr2939zo3N4NFlbg+zC0SP9oPrP3VubNKvuZ3uo9Mo+4R6vnrUn5+Z74+3bdHLW/fWv/6Bfz15cV7kahcvtp7Is9YWN16+iC6M01izj4xD2AGBphJotW2jRzvCs9d3gjnh3NENXsJ75cOr7sOn3c1fi6j/aGVmmv2bWRmrt84v9t7srQp7FrHtxYsNrua1WxtPFoWp9ROrankJA4IqQGB0Aq22bbhEDavrNdqtR2z789POt9917r7KtW0srPn+WF2r3mrcobo01UvWxmCVGlYvebFnxbZH/Yp+VVhNwy4ITIBA6217fad3PAHuOZcsaNv+PI9qqzItbfVQtl27tbF3ktPXI9mLMcfmOc3AyyAwbgL+2Pb4tDsnP/jP7YePUvK2x6e9JVnsxmYwtx+my5TGtqXY9sOvvYerNBplX8Hdp+GHxMB9OAs3nwZ3jWK9n8/0ctFm/KqqTWx8s9qz6+zPT01NT0/nSep8sLqhkqdPFrf29lwp15Nob1V88KcB6eLWIMWSpduWEMIj9KmprNRzf54mTMaendbHA9sgUCoBT2x7fBjfy+J3tNj/ehKAYtmNb3kFSs2mT8OlnWBOfKmbY+pId3d4uj8/Db75s/Ss1GVSjjxcpfmBVd253Z/jKw5lW2GobNeevFGeXVvUnLtqfqLfi+9lPVmMk63OsDTbttTsi+JLJG3l7pPFjZd7cWfNraOVGfqbI9234ldLtpHNOrEHAvUi4IVtT7ts2kAQTxi4TKZcCVHF4okKEZu60Jk7VAlQfqLwrCZufmR42/7aZaoNNuMoNUrJA0Qf4jKEnIUPmaMf/up4R6TUoJUU9smKBgnhmdM13a0n0ctF69O9mGxgJli31r/+YW3xjTmFgF4/z7bxvAU1gUFtpNuWEJZPyJApYltt9LHpJQEfbMuNuXRqAE7MABMTDKxihPDjTo2OnkkQ0WjCmPy4Hrcajec7XKmJc+mLubalseBUhpvYFc732EyALMdJe66tqt9HoqXcqslzs20rTmbfBqv3iuRt5Sn098fUVHasLsviOwh4SMAD2/Jo1NZlwrap6kyUVMOUeooqkbdB49Nk0kDqUg94WU00ddtlmYTg7qrIP1zNtjwSzFMTNyOdgLUaXaTkYVOduEfDWz3g5TDGZluRTMiO1vMGBK+DQH0JNMa2lz0+YVbmZFUqlid87QwvG5GRbXvWu8uyAUqgasOVXlDpXeMO2DhtSz/4722pua5rjltkIv6lWV3ri61KgG3r+7OLlvlGoHG2TaRiMxKypdlWzkYwNPrtd3Em4cMrqtpvVrs/n8Wf2EfJJBSLbdW78UKbcrBmzDcQtlWpVWujwkwCYls1XNhoJgEPbMsTr3ZwmsgPUHXe2LQTDpmjNrJtCb/TFVs15XI8jWsnFkaxbaG8bbI1dDYYvf11a2sgX+R30pJWla/b38eWSUDe1kaN/YYR8MC2hIlVn1dAxyBhW1EscZcsY8BGt624neXMBmgXdt40S7vDRs/LvUtGCs1J0JqgNmkwa9y8YvnZ5F0ydYK1MS7b5s1JsJqBXRDwjoAPtiUqJ3sYL1XgCjbcKmeALZmrb49Pw914Tpg+QiXYlsgZYA/NZxp8+DXUVy4k7BmpWbpOU4vMg2uVhOxAkfm2Fy827Fwtm4Fr2JbIGWD6RDFCyEk0cK2DEHfeXJPDZNPE99T7b1Y5uivSCBm3/TADzIENh7wi4IVtCZ1LK58aY0+Vvb4fKuL6IgjtQTN2XCzLl2FbQrgZeer2m9WA3zezn3Ig76ex1Q1Wetf1PAQh8bjkN0/jbor2i/A21VAnEZ8BxlOx+uoGO5LVF0FoT5BxzrclWmFRc2L2GG9gcdsWWEsmOps36U0OLb6DQP0I+GJbQshlqD0dMZjb7+0eUgXrtqV8L+lqMfUQxes7wdJheDy+2JYP6Vn4UM7o+va7zjerwcNXobGWgbDlDHEZVoCICNf59Bld4rTOpG3FioDsxbv8/pi+ouylK2IlxFjgyyaNvRmcuNb40im68dozmgUezbbqOQnZc78Q29bPHmjRcAQ8su1wHStSupzYtsiVxlaGR4X8AQLVPAOseFcKxLb0ubyVPC6yeKtREgTGRaDNtmV5XvMpCuPCPM56qbEKPZ5mnI1w1E3TwWaC2C4kEwgzVT7DzG4E9kGgKgKtsy39Yw1sBYTI/2qPUBiK+adPn3j5jx8//vLLLx8/fuS7nz59Gt9uagupcVfG/LcbUi+uv0CTDGyVhEwWO560oJXvr8C0Gg5sNptAC20bP49xlMctHhwcfP78mav29PSUG/bz588HBwfv378f027934t8xoJQbYGH29a/R2ghCJRFoHW2LQucblVCCNfu+/fvdQuXvltW41EPCIBA9QRg2ysytzIGSrhWhmEcu1dsMU4DARCYKAHYdqL4cXEQAIHWEIBtWzPU6CgIgMBECcC2E8WPi4MACLSGQB1t+/v5H7+f/9GaIUBHQQAEWkEAtm3FMKOTIAACEycA2058CNAAEACBVhCAbVsxzOgkCIDAxAnAthMfAjQABECgFQRg21YMMzoJAiAwcQKw7cSHAA0AARBoBQHYthXDjE6CAAhMnABsO/EhcDcg7P7Y6XwfdHfjv4juLjiGo/T5jdl/SGEMFy2pyv6z2S+Wvrr57MEEuJXUhfKqYeNYt4fMl9c972qCbWs5ZNFu0Pn7Tuf7TufH3ujaiHa73efd3kGRmuI/BrGS/DHdvn3nyy+Wvrr2bJsQEu1Qr127s1DFc3XPHtx+tnB7ZzunC2cPbvIW3pm9f1bLkS2hUUVHIXMoS2gHqhiWAGw7LLFqyv9WZmwbPqfiDvLD5Pjn0/3XFAb316ltb+4MYtuuVxJFvlugZs+/1mCMsW3RNoz7HVJ8FI76K/hDROMejiHqh22HgOVr0YK27c/zPxHmNi3rfP8Zte3td2yH24fFuWMnUwPTiVi+mv5mAh1qFNQf2Uz928yZ18KLJRKAba8OM+rR1Cr/6oa/hb3n6uO//bE9zgx83+keECJCVxZyPh86V8BrY/VE4fMg4DkHO8mrN0+1U24kExR5fy+dcYp2Zq+pD+nsYzuPc22IZ9v3Wf70i6WvaCy8vtBPfq4/G/R3Fm6u03SEKnb/HY2a1T8uOFVA34iboUrnbrAGszTIIHq3cJPF6alJ3rPt27Jt1+7M3ny2wLMo4jdN7rXGWaDoKMg2yL//5msuXvbD+++w7QhDGB30urHsuMiU+5hV48qj6CDs8U/0P3IpB4HYMD/jH3SDH+lL/IsqNfFPuFue3vneedGhbCt+IHPjn3cLWqKWJhAdtn23wJOnzLNCpg45snCV5QdmdefqOhvGtlSON9WXMwLltr0zqzWPhuoqEx2Dlm1jXZBl7szeNn8ZxOUr3ioyCkaTjlZmpqanp6fgWwNL1Tuw7ajEldSC3m+iruigy+5xdUOzchXhBs9Debsn7FnpVHGuCEKzbEvvoXVDeVGeLug8t65JW5CfSRCBbf4PY+LnXJcj6624h6NbOErJA0RneiQ74B+Q+S04ExwhKTVoxcR13fbk5bR7aLE3ec3Gvb5kF0Sq1N02rREVbeaPQqIhLE00Bd0mwFR5ALYdlbawralF50HCbRu4hJhsRZwuSLzmrodrOpkiKGBbGvpMlfKjmJbc5McTaja7xsXnDEvzbSuritMF8oj6zl9atyZRULcaobfzWiIuts5VVdd/g/5CnZrK/fBS/4543ELYdtTB42J1h7HWNABhSSuYTWlAvm2tekawLQ98yvhJ7D8zzaU6xxSmB7zsFZq6jTMA2vQydZ7YcBrQLsT2821rTaJIsa0lfe9tK5IJ+R9fnFRxsAwCsO2oFGFbjaD8xK3yp2qDmVS3Lb1PxQ7q974cKVRee5W2JSqToKb3ZmY5tP7XeBO2nfzgwLajjoHbts5UafNjW2FbS6BqN84kiFCR3neSGWyZnLWCSj4+ldqWENY81Wy+YWQbRn3XVH8+bFs9c/uKsK1NZNh9p235wfi+Ga+0trYtL29rTAVNR8nTuHqoS8typdbAttG7B3x+2DURmy/cz13Glt7ZeryCvO3kxwG2HXUMXLZNSaHW1rak8JyEXFoZxtTOdd40S7vDRs+rMrblcbd9M01rvY+bmJNQg1GDbUcdBG7bTkdN6vqtx5cbmLMU6GUmZVt+3biFji4XnW/rONU6JJOez1TSkxU42+7rk1UT9lRpXPcsK3WTKrlKwro+L+kMkIVG8+6SybytnkmgCxycazTo1Qd8KUfeo3DKLWZ1O3tXpBHKuA+afSG8mkUAts2iU+Q1aVu2qCyQq8vMaV5hl69WkIu+1OKFwFxIFu1qSxuswlpJt7VTAmraB/6SWPbGZvImZ6GJ8LaEH0gmNZXrVEu2zKccxBnea3LJlrKbWZIPgpB4XEafIXv2IJ7YoFaIqSSAEnRR2xIi17mp5RLqunHqWb05ZH9zErvlFlNXL7CBtWQFIFVRBLYdlbLIJPR2u/EKWvtpW2FXqFMunFXiM6fHiiBUvapvaCWHtq0Mq+U6YxqJJ/stn5NQgnAJfTqMmnLAVr4+6BtrGWhIqJe5+exB/4zwCNdlW/vOlbakzX5JmZHOcFDrjIkolqg8MQMsSYYdSVujUfPYVj0nAXO/Uga2usOw7aisXXnbUeuc1Pk8CJqenp7JeDLNpBpX3XUHfec9MXdoXF2zhr8SfVAxf9JQGb9Bh78+zjAJwLYmj+H3mmRbQgj9AZ2ia+pb+/MpFxA/iFQKgr4r5FRiZ0Z4+LdNBWfIBEK7f3VWALrwJWDbwqhSCjbMtrSX1LgrVTwjPAXppA/HOWX+YJ04JeLZRIX+Ckw76TeTfn3YVqdxle0G2vYqGBp2ziB6R++8qRTwtfXZ/L8c0TAG6E7ZBGDbsomiPhAAARBwEYBtXVRwDARAAATKJgDblk0U9YEACICAiwBs66KCYyAAAiBQNgHYtmyiqA8EQAAEXATqaFtXO3EMBEAABPwmANv6PX5oPQiAgC8EYFtfRgrtBAEQ8JsAbOv3+KH1IAACvhCAbX0ZKbQTBEDAbwKwrd/jh9aDAAj4QgC29WWk0E4QAAG/CcC2fo8fWg8CIOALAdjWl5FCO0EABPwmANv6PX5oPQiAgC8EYFtfRgrtBAEQ8JsAbOv3+KH1IAACvhCAbX0ZKbQTBEDAbwKwrd/jh9aDAAj4QgC29WWk0E4QAAG/CcC2fo8fWg8CIOALAdjWl5FCO0EABPwmANv6PX5oPQiAgC8EYFtfRgrtBAEQ8JsAbOv3+KH1IAACvhCAbX0ZKbQTBEDAbwKwrd/jh9aDAAj4QgC29WWk0E4QAAG/CcC2fo8fWg8CIOALAdjWl5FCO0EABPwmANv6PX5oPQiAgC8EYFtfRgrtBAEQ8JsAbOv3+KH1IAACvhCAbX0ZKbQTBEDAbwKwrd/jh9aDAAj4QgC29WWk0E4QAAG/CcC2fo8fWg8CIOALAdjWl5FCO0EABPwmANv6PX5oPQiAgC8EYFtfRgrtBAEQ8JsAbOv3+KH1IAACvhCAbX0ZKbQTBEDAbwKwrd/jh9aDAAj4QgC29WWk0E4QAAG/CcC2fo8fWg8CIOALAdjWl5FCO0EABPwm4K1td/c7NzaDR5cj4o8e7QfXf+rc2KRfczvdR6fRiDUSQn5+2vn2u2DzbJSawoertJKHr0Zoz6/db/7c+eZpOGw7jvrzM/P9Yc8arnz08ta99a9/4F9PXpwXOfvixdYTedba4sbLF9GFcRpr9pFxCDsgUB8CrbZt9GhHePb6TjAnnDu6wUuw7YdXwTd/7nz7Xeeb1d6HK79brmLbo5WZafZvZmWs3jq/2HuztyrsWcS2Fy82uJrXbm08WRSm1k+squVXHg6c2HYCrbZtuEQNq+s12q1JbHs2kdg2FtZ8f6yuVT923KG6NNVL1sZglRpWL3mxZ8W2R/2KflVYTcMuCBQi0HrbXt/pHRciNUShMjIJQ1wuteiQsW1/nke1VZmWtnso267d2tg7Se0tf+FI9mLMsXlOM/AyCCQJ+GPb49PunPzgP7cfPkrJ2x6f9pZksRubwdx+mC5TGtuWYtsPv3bv0jQr/br7NNxM5G1VZuDb7zoPfyVEhK68/NC5Al4bqyf6+Wlwl+UcHEleh23DhzxBkUzm9uenpqanp/MkdT5Y3VDJ0yeLW3t7rpTrSbS3Kj7404B0cWuQYsnSbUsI4RH61FRW6rk/TxMmY89OJ3/gcKTFBDyx7fFhfC+L39Fi/+tJADqIu/Etr0Cp2fRpuLQTzIkvdXNMHenuDv9e0E3Khcv+t+6SRR9+5Rbu3F3lOdlAbnTu6rfCqLjpS/yLKjXxj1/xG1EPvZkmhctUrsrbto022a8EVy5YGCrbtSdvlGfXFjXnrpqf6Pfie1lPFuNkqzMszbYtNfui+BJJW7n7ZHHj5Z7qqbVxtDJDf3Ok+1b8ask2slUpdkFgRAJe2Pa0y6YNBPGEgctkypUQVSyeqBCxqQuduUN1Z5+fKDyriZsfGd62zGh0BsKv8hJnPH60bEvHSXn57tNQ3vsKN3XVEkJEhSJSzrAtu4fW/VnOfGDpC3MGgmHbDNUSIuyTFQ0SwjOna7pbT6KXi9anezHZwEywbq1//cPa4htzCgFFkmfbeN6CmsCgNtJtSztEbZulW8S2I6oDpw9NwAfbcmMunRqdS8wAExMMrGKE8ONOjZaQSeCOs5yYlrfltr2b/BRv9Ezs8MJWzfw1dz3crfocBs22vJ3fftf92XUtGgtOZbiJnXO+x2YCZDlO2nNtVf7qkVfjVk2em21beTb9Pli9VyRvK0+hvz+mprJjdVkW30GgEgIe2JZHo7YuE7ZNVWeipAKbeooqkbfBw1hbYTm2tYLZlGvk29aqJ922vKo01RIZCeapiZuRTsBajS5S8rCpTtyj4a0e8PJuj822IpmQHa2noMdhEBgLgcbY9rLHJ8zKnKxKxfKEr53hZTBbYVuVSjayw+abiX/uzrMt/eC/t6Xmuq45bpGJ+Jdmda0vtioBtjW5Y69dBBpn20QqNiMh2x7bittozrxE4dhW/WRcaFMO1oz5BsK2KrVqbVSYSUBsq4YLG3Uh4IFteeLVDk4T+QGqzhubdsIhk/PotuW3nuwbYrXKJNCZYXTOWY/NW7CbyvkUytsmUdLZYPT2162tgXyR30lLWlW+bn8fWyYBeVsbNfYnTsAD2xImVn1eAaWWsK0olrhLloF4dNvyRbrmFK705ySIu1tWvjWlgSXmbfkVsrK3heYkuBpKg1nj5hXLzybvkrnOpcfGZdu8OQlp7cFxEBgfAR9sS1RO9jBeqsAVbLhVzgBbMlffHp+Gu/GcMB1lCbaVMWPn7is1qUsoOPmxfbK2lY/LcT57och824sXG3auls3ANWxL5AwwfaIYIeQkGrjWQYg7b67JYfpIDTknQaQRMhLRWN1g4cVuBQS8sC2hc2nlU2PsqbLX9+NnXOmLILQHzdhxseRahm3ZDFm1uEDdkuIb8vlb4UO+WkEu+lKLF+4+NRaSfXilLW2wCmsl3dZOn5Mg+0sIkbNuk7PQRHibaqiTiM8A46lYfXWDHcnqiyC0J8g459sSrbCoOTF7jDc/dbaD1ju+WWAtmehs3qS3RNU4AAIjEPDFtoSQy1B7OmIwt9/bPaQK1m1LQVzS1WLqIYrXd4Klw/B4fLEtZ38Wbj4VT+2iK7ue9n5+1b0bP+1QrJe1XJx8xJf8sC+WNujl9QVgI9iWECIak5yiUOAJA/z+mL6i7KUrYiXEWODLJo29GZy41vjSZEK89oxmgUezrXpOQvbcL8S2I0gDp16RgEe2vWIPM04rKbbNuIJnL/GokD9AoJpngBUHVCC2pc/lreRxkcVbjZIgEBNos21Zntd8ikIMpq1b1FiFHk9TMSCaDjYTxHYDZAJhpspnmNmNwD4IpBNonW3pH2tgKyBE/ld7hEI6Jccrnz594kc/fvz4yy+/fPz4ke9++vTJl11Hr/ghatyVMf/thtSL6y/QJANbJSGTxY4nLWjl+yswrYYDm3Uj0ELbxs9jHOVxiwcHB58/f+aqPT095Yb9/PnzwcHB+/fvvdit23sx2R4+Y0GotsDDbZM14AgI1IdA62xbFnrdqoQQrt3379/rFq75blkoUA8IgEARArBtEUqOMlbGQAnXyjDUfNfRMRwCARAYDwHYdjxcUSsIgAAImARgW5MH9kAABEBgPARg2/FwRa0gAAIgYBKoo21/P//j9/M/zHZiDwRAAAT8JgDb+j1+aD0IgIAvBGBbX0YK7QQBEPCbAGzr9/ih9SAAAr4QgG19GSm0EwRAwG8CsK3f44fWgwAI+EIAtvVlpNBOEAABvwnAtn6PH1oPAiDgCwHYtqYjFXZ/7HS+D7q7UfUNpE9czP7TB0O26d3CF0tf3dxRf5l3yNNZ8f6zWVrJswcjANm+fefLa3cWij9MsoyLXqWztTyHvSvq9pD5WpJKaxRsm0Zmosej3aDz953O953Oj70R7CL6EO12u8+7vYMiNcV/vmEl+YNFbfXF0lfXnm3TP3G2Q/VXSF6j2/bswU1+6Tuz98+uPDRD2raci165tdWcWHRMM98Y1TTV+6vAtvUcwt/KjG3D51TcQX6YHP9Euf/+weD+OrUtj1KFbdcLBJuj25YMyggzh7RtORdNeYMxJteK0EupoKTDxcf0qL+CP0Q0EnXYdiR8fpxc0Lbyr0C6Tcu62n9GbXv7HdvhvmBxbg6HEmybc4ViLw9r22K1XqmU+F1VhN6V6i9+0lBjqv7IZurfZi5+4faVhG2vPuZRj6ZW+Vc3/C3sPVcf/+2P7XFm4PtO94AQEbqykPP50LkCXhurJwqfBwHPOdhJXr15qp1yI5mgyPsL54xTtDN7TX2WZx+03dnYs+3b6zTPQFMN6wv9nUTeVn5Il3kJEbry8kPnClhtLL8xiN4t3GQBuCvJ67Atd02hfIj1Til6UXaaDuTO7M1nCzwnI35vWTVXu1t0TGWr5N9/KzWzLytv9nfYdoTxjQ563Vh2XGTKfcyqceVRdBD2+Cf6H7mUg0BsmJ/xD7rBj/Ql/kWVmvgn3C1P73zvvOhQthU/QrkRy7sFTUxUXg7baiblwuX/WyWjs21u4Wvrszwne1NumJ+vqbjpS/zLGQxy8d0R9VDPSuHyFLMkaNtWpp6TueASL0oIC+0FBNWwO7O3341021B2auTvRcbUuMjRyszU9PT0FHxrYMnfgW3zGWWXUFILer+JktFBl93j6obmqSrCDZ6H8o5V2LPSqeJcEYRm2ZbeQ+uG8qI8XdB5bl2TtiA/kyAC2/wfn8RPZiI6o0Zjud1t2cUBjx8t29KGSS/T+Ffe++rvWIlgUaGIlNNty27ZaQrjiQ5jBoJh23TVEkJKvqhKdrM3hEiVmr8JzLdKlXv5Y5poDUs6TUG3CTDZB2DbbD75rwrbmlp0HiTctoFLiMnrxOmCxGvuerimkymCAralwcpUOT88zmRuWt6Wx6TrxaZk8cLptqXKNlBxt+pxq2ZbGW8mflsYVfDfB24tuhufuCgHYt0N4+cavwnM69Z9j/56nprK/ShU925U3D7YdlTgXKzuMNaaBiAsaQWzKQ3It61Vzwi25aFKGT87xi0X1bMc21rBrDrN3Mi3rVVPQnwsYqWZEFZVfLvPvI6xN/pFuW2tXxLe21YkE/I/DBk0274D2476DoBtdYL1t61KJZvZYb0T2vbotpVJiZs7dmrFHTJrF6/xJmx7lcGBba9CTT/HbVtnqhSxrQ5O5m0LWU8VtoJEXiF3ovVpXUSydiZBv1uV77sSbBunp5XoeYp56KkXFr1J7sK2V6EP216Fmn6O07b8YHzfjJ9QW9uWl7flt57sG2J1yiSwmWHbhBiz+vUBNbbLsG307gGfI0FnX9CvZGlMzgAAAqFJREFUhftxnGtczZ8d5G2vMlaw7VWo6ee4bJuSQq2tbUnhOQl6z53bzptCdbJtPIONmTQnezu6bXkN9h08Jzt/DmJOwpXGCra9EjbtJG7bTkdN6vqtx5cbmLMU6BmTsi2/btxCrfVys+h8W1k+/buc3rT+QE3q4hNOHR/bhYmsu1spdY8uPnWXTF2B/25Q6zXUcbVR0kX1HAJPI9zUJr2pq7GNwf1Cz98pt5jZhJw9kUYo465qzpUa9jJsO+qAStuyRWWBXF1mTvMKu3y1glz0pRYvBOZCsmhXW9pgFdZKuq2dElDT/vGXxLI3NpM3OQtNhLdl/Aht35Zz+BOWEZO0+s/4Z2o6M5ctRpCLF9YXjGzm2QNtaYNVWCvptnb6nARtzOWsW232WMkXJeRs0N9ZiBdoyFV27rCa9SU/sVtuMQ1I7ibWkuUiSisA26aRKXpcZBJ6u914Ba39tK2wK9QpF84q8ZnTY0UQql7VN7SSQ9tWhtVynTGNxJP9k89JKEO4zC9smQOT6cL9dw9ur8dPO+RTFywXOxQjnZJTcgTbEkJ4Y+KbdSVfNAmaHomcKRf6SrlBa8Ha3I1MHlXPScDcrySc3COwbS6inAKuvG3OKbV9mYct09PTMxlPpqlt62vasEHfeU/M/Ruipn1gzaKPPZ5m/8r4fVznno6rbbDtqGSbZFtCCP2RmqKr4PETNeo7g50vAudnDyK5NJkdltlt54S2Ui5cdiUygYBfxFcnC9tenR0/s2G2pZ2ixl0xV8GOSqnF5wuxxhlqmWBJLDWuOaT+Ckw72hDBtqPxI6SBth0VCc63CAwimrYWj6Ck6en12dvO9IJ1HnabRQC2bdZ4ojcgAAJ1JQDb1nVk0C4QAIFmEYBtmzWe6A0IgEBdCfx/dI1rA7v+HxoAAAAASUVORK5CYII=;" vertex="1" parent="1">
                    <mxGeometry x="303.0032824707031" y="972.0032824707032" width="463" height="422" as="geometry"/>
                </mxCell>
                <mxCell id="13" value="" style="rounded=1;whiteSpace=wrap;html=1;hachureGap=4;fontFamily=Architects Daughter;fontSource=https%3A%2F%2Ffonts.googleapis.com%2Fcss%3Ffamily%3DArchitects%2BDaughter;fontSize=20;fillColor=none;" vertex="1" parent="1">
                    <mxGeometry x="300" y="967" width="73" height="30" as="geometry"/>
                </mxCell>
                <mxCell id="14" value="" style="rounded=1;whiteSpace=wrap;html=1;hachureGap=4;fontFamily=Architects Daughter;fontSource=https%3A%2F%2Ffonts.googleapis.com%2Fcss%3Ffamily%3DArchitects%2BDaughter;fontSize=20;fillColor=none;" vertex="1" parent="1">
                    <mxGeometry x="377" y="967" width="84" height="30" as="geometry"/>
                </mxCell>
                <mxCell id="15" value="" style="rounded=1;whiteSpace=wrap;html=1;hachureGap=4;fontFamily=Architects Daughter;fontSource=https%3A%2F%2Ffonts.googleapis.com%2Fcss%3Ffamily%3DArchitects%2BDaughter;fontSize=20;fillColor=none;" vertex="1" parent="1">
                    <mxGeometry x="355" y="1002" width="142" height="32" as="geometry"/>
                </mxCell>
                <mxCell id="16" value="" style="rounded=1;whiteSpace=wrap;html=1;hachureGap=4;fontFamily=Architects Daughter;fontSource=https%3A%2F%2Ffonts.googleapis.com%2Fcss%3Ffamily%3DArchitects%2BDaughter;fontSize=20;fillColor=none;arcSize=4;" vertex="1" parent="1">
                    <mxGeometry x="355" y="1057" width="421" height="345" as="geometry"/>
                </mxCell>
                <mxCell id="17" value="" style="rounded=1;whiteSpace=wrap;html=1;hachureGap=4;fontFamily=Architects Daughter;fontSource=https%3A%2F%2Ffonts.googleapis.com%2Fcss%3Ffamily%3DArchitects%2BDaughter;fontSize=20;fillColor=none;" vertex="1" parent="1">
                    <mxGeometry x="355" y="1066" width="185" height="32" as="geometry"/>
                </mxCell>
                <mxCell id="18" value="" style="rounded=1;whiteSpace=wrap;html=1;hachureGap=4;fontFamily=Architects Daughter;fontSource=https%3A%2F%2Ffonts.googleapis.com%2Fcss%3Ffamily%3DArchitects%2BDaughter;fontSize=20;fillColor=none;" vertex="1" parent="1">
                    <mxGeometry x="355" y="1132" width="330" height="67" as="geometry"/>
                </mxCell>
                <mxCell id="19" value="" style="rounded=1;whiteSpace=wrap;html=1;hachureGap=4;fontFamily=Architects Daughter;fontSource=https%3A%2F%2Ffonts.googleapis.com%2Fcss%3Ffamily%3DArchitects%2BDaughter;fontSize=20;fillColor=none;" vertex="1" parent="1">
                    <mxGeometry x="355" y="1231" width="330" height="66" as="geometry"/>
                </mxCell>
                <mxCell id="20" value="" style="rounded=1;whiteSpace=wrap;html=1;hachureGap=4;fontFamily=Architects Daughter;fontSource=https%3A%2F%2Ffonts.googleapis.com%2Fcss%3Ffamily%3DArchitects%2BDaughter;fontSize=20;fillColor=none;" vertex="1" parent="1">
                    <mxGeometry x="355" y="1328" width="331" height="66" as="geometry"/>
                </mxCell>
                <mxCell id="21" value="" style="rounded=1;whiteSpace=wrap;html=1;hachureGap=4;fontFamily=Architects Daughter;fontSource=https%3A%2F%2Ffonts.googleapis.com%2Fcss%3Ffamily%3DArchitects%2BDaughter;fontSize=20;fillColor=none;" vertex="1" parent="1">
                    <mxGeometry x="406.5" y="1165" width="164.5" height="32" as="geometry"/>
                </mxCell>
                <mxCell id="23" value="" style="edgeStyle=none;html=1;fontSize=14;entryX=0.5;entryY=0;entryDx=0;entryDy=0;" edge="1" parent="1" source="22" target="13">
                    <mxGeometry relative="1" as="geometry"/>
                </mxCell>
                <mxCell id="22" value="class关键字" style="text;html=1;strokeColor=none;fillColor=none;align=center;verticalAlign=middle;whiteSpace=wrap;rounded=0;fontSize=14;" vertex="1" parent="1">
                    <mxGeometry x="285.5" y="915" width="102" height="27" as="geometry"/>
                </mxCell>
                <mxCell id="25" value="" style="edgeStyle=none;html=1;fontSize=14;entryX=0.5;entryY=0;entryDx=0;entryDy=0;" edge="1" parent="1" source="24" target="14">
                    <mxGeometry relative="1" as="geometry"/>
                </mxCell>
                <mxCell id="24" value="类名" style="text;html=1;strokeColor=none;fillColor=none;align=center;verticalAlign=middle;whiteSpace=wrap;rounded=0;fontSize=14;" vertex="1" parent="1">
                    <mxGeometry x="368" y="915" width="102" height="27" as="geometry"/>
                </mxCell>
                <mxCell id="27" value="" style="edgeStyle=none;html=1;fontSize=14;entryX=1;entryY=0.5;entryDx=0;entryDy=0;" edge="1" parent="1" source="26" target="15">
                    <mxGeometry relative="1" as="geometry"/>
                </mxCell>
                <mxCell id="26" value="类说明文档" style="text;html=1;strokeColor=none;fillColor=none;align=center;verticalAlign=middle;whiteSpace=wrap;rounded=0;fontSize=14;" vertex="1" parent="1">
                    <mxGeometry x="537" y="1003.5" width="88" height="29" as="geometry"/>
                </mxCell>
                <mxCell id="38" value="" style="edgeStyle=orthogonalEdgeStyle;html=1;fontSize=14;" edge="1" parent="1" source="28" target="16">
                    <mxGeometry relative="1" as="geometry"/>
                </mxCell>
                <mxCell id="28" value="类体" style="text;html=1;strokeColor=none;fillColor=none;align=center;verticalAlign=middle;whiteSpace=wrap;rounded=0;fontSize=14;" vertex="1" parent="1">
                    <mxGeometry x="811" y="1215" width="46" height="29" as="geometry"/>
                </mxCell>
                <mxCell id="31" value="" style="edgeStyle=none;html=1;fontSize=14;" edge="1" parent="1" source="30" target="17">
                    <mxGeometry relative="1" as="geometry"/>
                </mxCell>
                <mxCell id="30" value="类属性" style="text;html=1;strokeColor=none;fillColor=none;align=center;verticalAlign=middle;whiteSpace=wrap;rounded=0;fontSize=14;" vertex="1" parent="1">
                    <mxGeometry x="599" y="1067.5" width="60" height="29" as="geometry"/>
                </mxCell>
                <mxCell id="33" value="" style="edgeStyle=none;html=1;fontSize=14;" edge="1" parent="1" source="32" target="21">
                    <mxGeometry relative="1" as="geometry"/>
                </mxCell>
                <mxCell id="32" value="实例属性" style="text;html=1;strokeColor=none;fillColor=none;align=center;verticalAlign=middle;whiteSpace=wrap;rounded=0;fontSize=14;" vertex="1" parent="1">
                    <mxGeometry x="611" y="1166.5" width="60" height="29" as="geometry"/>
                </mxCell>
                <mxCell id="35" value="" style="edgeStyle=none;html=1;fontSize=14;entryX=1;entryY=0.5;entryDx=0;entryDy=0;" edge="1" parent="1" source="34" target="18">
                    <mxGeometry relative="1" as="geometry"/>
                </mxCell>
                <mxCell id="36" style="edgeStyle=orthogonalEdgeStyle;html=1;entryX=1;entryY=0.5;entryDx=0;entryDy=0;fontSize=14;" edge="1" parent="1" source="34" target="19">
                    <mxGeometry relative="1" as="geometry"/>
                </mxCell>
                <mxCell id="37" style="edgeStyle=orthogonalEdgeStyle;html=1;entryX=1;entryY=0.5;entryDx=0;entryDy=0;fontSize=14;" edge="1" parent="1" source="34" target="20">
                    <mxGeometry relative="1" as="geometry"/>
                </mxCell>
                <mxCell id="34" value="方法" style="text;html=1;strokeColor=none;fillColor=none;align=center;verticalAlign=middle;whiteSpace=wrap;rounded=0;fontSize=14;" vertex="1" parent="1">
                    <mxGeometry x="724" y="1151" width="46" height="29" as="geometry"/>
                </mxCell>
            </root>
        </mxGraphModel>
    </diagram>
</mxfile>